<svg width="44" height="44" viewBox="0 0 44 44" fill="none" xmlns="http://www.w3.org/2000/svg">
<path d="M31.158 14.8294L30.6872 13.2799C30.0892 11.5197 28.1775 10.5777 26.4173 11.1757C25.4271 11.5121 24.6495 12.2897 24.3131 13.2799L23.8423 14.8294C23.4461 16.1362 23.3629 17.5179 23.5995 18.8628C23.8153 19.995 24.5342 20.9678 25.5531 21.5064L25.0259 33.2933C24.9553 33.9512 25.1687 34.608 25.6125 35.0988C26.5671 36.1429 28.1874 36.2155 29.2314 35.2609C29.2879 35.2093 29.342 35.1552 29.3936 35.0988C29.8275 34.6219 30.0406 33.9844 29.9803 33.3424L29.4501 21.505C30.4677 20.9661 31.1853 19.9939 31.4007 18.8628C31.6373 17.5179 31.5542 16.1362 31.158 14.8294ZM29.9561 18.6076C29.7973 19.421 29.2176 20.0884 28.4344 20.3595C28.1371 20.4712 27.9456 20.7616 27.9599 21.0789L28.5173 33.4583C28.5429 33.7011 28.4628 33.9432 28.2973 34.1227C27.8557 34.5599 27.1446 34.5599 26.703 34.1227C26.5292 33.9287 26.4503 33.6677 26.4874 33.4099L27.0403 21.0789C27.0546 20.7616 26.8631 20.4712 26.5659 20.3595C25.7827 20.0884 25.203 19.421 25.0442 18.6076C24.848 17.4911 24.9172 16.344 25.2459 15.2592L25.7167 13.7089C26.081 12.7239 27.1747 12.2208 28.1598 12.5851C28.6805 12.7777 29.091 13.1882 29.2836 13.7089L29.7544 15.2592C30.0827 16.3441 30.1519 17.4911 29.9561 18.6076Z" fill="#363853"/>
<path d="M19.8 11C19.395 11 19.0667 11.3284 19.0667 11.7333V18.0297L17.0815 20.0149C16.9347 20.1612 16.8566 20.3629 16.8667 20.57L17.5083 33.4033C17.5236 33.6801 17.4232 33.9508 17.2311 34.1506C16.8297 34.5556 16.176 34.5585 15.7709 34.157C15.7687 34.1549 15.7666 34.1527 15.7645 34.1506C15.5723 33.9508 15.472 33.6801 15.4873 33.4033L16.1333 20.57C16.1436 20.363 16.0658 20.1614 15.9192 20.0149L13.9333 18.0297V11.7333C13.9333 11.3284 13.605 11 13.2 11C12.795 11 12.4667 11.3284 12.4667 11.7333V18.3333C12.4667 18.5279 12.544 18.7143 12.6815 18.8518L14.6513 20.8223L14.0257 33.3322C13.9592 34.6987 15.013 35.8605 16.3795 35.927C17.7459 35.9936 18.9077 34.9398 18.9743 33.5733C18.9782 33.493 18.9782 33.4126 18.9743 33.3323L18.3487 20.8224L20.3185 18.8519C20.456 18.7144 20.5333 18.5279 20.5333 18.3334V11.7334C20.5333 11.3284 20.205 11 19.8 11Z" fill="#363853"/>
<path d="M15.4 11C14.995 11 14.6667 11.3283 14.6667 11.7333V17.6C14.6667 18.005 14.995 18.3333 15.4 18.3333C15.805 18.3333 16.1334 18.005 16.1334 17.6V11.7333C16.1334 11.3283 15.805 11 15.4 11Z" fill="#363853"/>
<path d="M17.6 11C17.195 11 16.8666 11.3283 16.8666 11.7333V17.6C16.8666 18.005 17.195 18.3333 17.6 18.3333C18.005 18.3333 18.3333 18.005 18.3333 17.6V11.7333C18.3333 11.3283 18.005 11 17.6 11Z" fill="#363853"/>
<path d="M22 0C9.84977 0 0 9.84977 0 22C0 34.1502 9.84977 44 22 44C34.1502 44 44 34.1502 44 22C43.9863 9.85545 34.1446 0.01375 22 0ZM22 42.5333C10.6597 42.5333 1.46667 33.3403 1.46667 22C1.46667 10.6597 10.6597 1.46667 22 1.46667C33.3403 1.46667 42.5333 10.6597 42.5333 22C42.5204 33.3349 33.3349 42.5204 22 42.5333Z" fill="#363853"/>
<path d="M24.3804 35.7661C24.3411 35.3629 23.9824 35.0678 23.5793 35.1072C23.5698 35.1081 23.5604 35.1092 23.551 35.1105L23.5539 35.1097C22.5214 35.2297 21.4785 35.2297 20.446 35.1097C20.0436 35.0625 19.6792 35.3506 19.632 35.7532C19.5848 36.1558 19.8727 36.5204 20.2752 36.5676C21.4202 36.7014 22.5768 36.7014 23.7218 36.5676C24.1249 36.5284 24.4198 36.1695 24.3804 35.7661Z" fill="#363853"/>
<path d="M33.2202 12.5503C32.9599 12.24 32.4974 12.1994 32.1871 12.4597C32.1861 12.4606 32.1851 12.4615 32.184 12.4623C31.8744 12.7234 31.835 13.1859 32.096 13.4956C36.5175 18.7444 36.1793 26.5057 31.3179 31.35C31.031 31.636 31.0302 32.1004 31.3161 32.3873C31.602 32.6743 32.0665 32.6751 32.3534 32.3892C37.756 27.0071 38.1327 18.383 33.2202 12.5503Z" fill="#363853"/>
<path d="M17.0859 9.69412C17.0854 9.69412 17.085 9.69312 17.0845 9.69312C17.0838 9.69312 17.083 9.69412 17.0822 9.69412H17.0859Z" fill="#363853"/>
<path d="M25.4592 7.74329C22.5932 7.05643 19.5874 7.24105 16.8271 8.27349C16.4479 8.41603 16.2563 8.83898 16.3988 9.21802C16.5062 9.50375 16.7794 9.69285 17.0846 9.69313C17.1723 9.69267 17.2592 9.67663 17.3411 9.64555C19.827 8.71596 22.5337 8.54995 25.1145 9.16889C25.5082 9.26404 25.9045 9.02213 25.9996 8.62842C26.0948 8.23471 25.8529 7.83844 25.4592 7.74329Z" fill="#363853"/>
<path d="M12.6492 31.3133C10.1771 28.8454 8.79154 25.4932 8.79997 22C8.79273 19.2091 9.67677 16.4888 11.3234 14.2354C11.5667 13.9117 11.5016 13.452 11.1778 13.2086C10.854 12.9652 10.3943 13.0304 10.151 13.3542C10.1466 13.3599 10.1424 13.3657 10.1383 13.3716C5.89845 19.2005 6.52233 27.2462 11.6101 32.3517C11.8968 32.6386 12.362 32.6388 12.6489 32.3521C12.9358 32.0653 12.936 31.6002 12.6492 31.3133Z" fill="#363853"/>
</svg>
